# xmcd
#
# Track frame offsets:
#	150
#	11652
#	32477
#	50422
#	70117
#	91362
#	112472
#	136587
#	156137
#	161375
#	181812
#	200487
#	209842
#	231145
#	254112
#	274342
#
# Disc length: 3902 seconds
#
# Revision: 1
# Processed by: cddbd v1.5.1PL0 Copyright (c) Steve Scherf et al.
# Submitted via: CDex 1.50Beta5
#
DISCID=e70f3c10
DTITLE=GAGLE - 3 MEN ON WAX
DYEAR=2002
DGENRE=Rock
TTITLE0=G・A・G・L・E
TTITLE1=SUPA DUPA EMCEE
TTITLE2=?IS THIS DIS?
TTITLE3=GET FRESH!!!
TTITLE4=雪ノ革命
TTITLE5=ONE SHOT 1斬り
TTITLE6=どぅるちきアワー(アンビリーバボーdj mix)
TTITLE7=FLY LIKE AN EAGLE(UP STREAM MIX)
TTITLE8=I SPEAK音楽
TTITLE9=どんちゃん騒げ
TTITLE10=フトコロノドレイ解放運動
TTITLE11=INTER-MOOD
TTITLE12=LIVE LIFE LIVE
TTITLE13=BLUE LANGUAGE LAB.
TTITLE14=都合良く憩う
TTITLE15=シャウトロ
EXTD=
EXTT0=
EXTT1=
EXTT2=
EXTT3=
EXTT4=
EXTT5=
EXTT6=
EXTT7=
EXTT8=
EXTT9=
EXTT10=
EXTT11=
EXTT12=
EXTT13=
EXTT14=
EXTT15=
PLAYORDER=
